<?xml version="1.0" encoding="UTF-8"?>
<svg width="40px" height="40px" viewBox="0 0 40 40" version="1.1" xmlns="http://www.w3.org/2000/svg" xmlns:xlink="http://www.w3.org/1999/xlink">
    <!-- Generator: Sketch 49.3 (51167) - http://www.bohemiancoding.com/sketch -->
    <title>Icon/Social/Instagram Copy</title>
    <desc>Created with Sketch.</desc>
    <defs></defs>
    <g id="Icon/Social/Instagram-Copy" stroke="none" stroke-width="1" fill="none" fill-rule="evenodd">
        <path d="M19.9968651,10.0063095 C22.7118254,10.0063095 23.0522619,10.0178175 24.1185317,10.0664683 C25.1825794,10.115 25.9092857,10.2840079 26.5451587,10.5311508 C27.2025397,10.7865873 27.7600397,11.1284127 28.3158333,11.6841667 C28.8715873,12.2399603 29.2134127,12.7974603 29.4688889,13.4548413 C29.7159921,14.0907143 29.885,14.8174206 29.9335317,15.8814683 C29.9821825,16.9477381 29.9936905,17.2881746 29.9936905,20.0031746 C29.9936905,22.7181349 29.9821825,23.0585714 29.9335317,24.1248413 C29.885,25.1888889 29.7159921,25.9155952 29.4688889,26.5514683 C29.2134127,27.2088492 28.8715873,27.7663492 28.3158333,28.3221429 C27.7600397,28.8778968 27.2025397,29.2197222 26.5451587,29.4751984 C25.9092857,29.7223016 25.1825794,29.8913095 24.1185317,29.9398413 C23.0522619,29.9884921 22.7118254,30 19.9968651,30 C17.2818651,30 16.9414286,29.9884921 15.8751587,29.9398413 C14.8111111,29.8913095 14.0844048,29.7223016 13.4485317,29.4751984 C12.7911508,29.2197222 12.2336508,28.8778968 11.6778571,28.3221429 C11.1221032,27.7663492 10.7802778,27.2088492 10.5248413,26.5514683 C10.2776984,25.9155952 10.1086905,25.1888889 10.0601587,24.1248413 C10.0115079,23.0585714 10,22.7181349 10,20.0031746 C10,17.2881746 10.0115079,16.9477381 10.0601587,15.8814683 C10.1086905,14.8174206 10.2776984,14.0907143 10.5248413,13.4548413 C10.7802778,12.7974603 11.1221032,12.2399603 11.6778571,11.6841667 C12.2336508,11.1284127 12.7911508,10.7865873 13.4485317,10.5311508 C14.0844048,10.2840079 14.8111111,10.115 15.8751587,10.0664683 C16.9414286,10.0178175 17.2818651,10.0063095 19.9968651,10.0063095 Z M19.9968651,11.8075397 C17.3275794,11.8075397 17.0113889,11.8177381 15.9572619,11.8658333 C14.9825794,11.9102778 14.453254,12.0731349 14.1009921,12.2100397 C13.6343651,12.3913889 13.3013492,12.6080159 12.9515476,12.9578571 C12.6017063,13.3076587 12.3850794,13.6406746 12.2037302,14.1073016 C12.0668254,14.4595635 11.9039683,14.9888889 11.8595238,15.9635714 C11.8114286,17.0176984 11.8012302,17.3338889 11.8012302,20.0031746 C11.8012302,22.6724206 11.8114286,22.9886111 11.8595238,24.0427381 C11.9039683,25.0174206 12.0668254,25.546746 12.2037302,25.8990079 C12.3850794,26.3656349 12.601746,26.6986508 12.9515476,27.0484524 C13.3013492,27.3982937 13.6343651,27.6149206 14.1009921,27.7962698 C14.453254,27.9331746 14.9825794,28.0960317 15.9572619,28.1404762 C17.0112698,28.1885714 17.327381,28.1987698 19.9968651,28.1987698 C22.6663095,28.1987698 22.9824603,28.1885714 24.0364286,28.1404762 C25.0111111,28.0960317 25.5404365,27.9331746 25.8926984,27.7962698 C26.3593254,27.6149206 26.6923413,27.3982937 27.0421429,27.0484524 C27.3919841,26.6986508 27.6086111,26.3656349 27.7899603,25.8990079 C27.9268651,25.546746 28.0897222,25.0174206 28.1341667,24.0427381 C28.1822619,22.9886111 28.1924603,22.6724206 28.1924603,20.0031746 C28.1924603,17.3338889 28.1822619,17.0176984 28.1341667,15.9635714 C28.0897222,14.9888889 27.9268651,14.4595635 27.7899603,14.1073016 C27.6086111,13.6406746 27.3919841,13.3076587 27.0421429,12.9578571 C26.6923413,12.6080159 26.3593254,12.3913889 25.8926984,12.2100397 C25.5404365,12.0731349 25.0111111,11.9102778 24.0364286,11.8658333 C22.9823016,11.8177381 22.6661111,11.8075397 19.9968651,11.8075397 Z M19.9968651,23.3354365 C18.1564683,23.3354365 16.6645635,21.8435317 16.6645635,20.0031746 C16.6645635,18.1627778 18.1564683,16.670873 19.9968651,16.670873 C21.8372222,16.670873 23.329127,18.1627778 23.329127,20.0031746 C23.329127,21.8435317 21.8372222,23.3354365 19.9968651,23.3354365 Z M19.9968651,14.8696429 C17.1616667,14.8696429 14.8633333,17.1679762 14.8633333,20.0031746 C14.8633333,22.8383333 17.1616667,25.1366667 19.9968651,25.1366667 C22.8320238,25.1366667 25.1303571,22.8383333 25.1303571,20.0031746 C25.1303571,17.1679762 22.8320238,14.8696429 19.9968651,14.8696429 Z M26.5328175,14.6668254 C26.5328175,15.3293651 25.9957143,15.8664286 25.3331746,15.8664286 C24.6706746,15.8664286 24.1335714,15.3293651 24.1335714,14.6668254 C24.1335714,14.0042857 24.6706746,13.4671825 25.3331746,13.4671825 C25.9957143,13.4671825 26.5328175,14.0042857 26.5328175,14.6668254" id="Combined-Shape" fill="#FFFFFF"></path>
    </g>
</svg>