<?xml version="1.0" encoding="UTF-8"?>
<svg width="40px" height="40px" viewBox="0 0 40 40" version="1.1" xmlns="http://www.w3.org/2000/svg" xmlns:xlink="http://www.w3.org/1999/xlink">
    <!-- Generator: Sketch 49.3 (51167) - http://www.bohemiancoding.com/sketch -->
    <title>Icon/Social/LinkedIn Copy</title>
    <desc>Created with Sketch.</desc>
    <defs></defs>
    <g id="Icon/Social/LinkedIn-Copy" stroke="none" stroke-width="1" fill="none" fill-rule="evenodd">
        <path d="M16.928612,16.9751457 L20.8176072,16.9751457 L20.8176072,18.6926108 L20.8730774,18.6926108 C21.4141021,17.7048308 22.7385489,16.6636769 24.7119214,16.6636769 C28.8197581,16.6636769 29.5788644,19.2643681 29.5788644,22.6473868 L29.5788644,29.5362572 L25.5226987,29.5362572 L25.5226987,23.4275211 C25.5226987,21.9710755 25.4961033,20.0971449 23.41407,20.0971449 C21.3031617,20.0971449 20.9809784,21.6844658 20.9809784,23.3236981 L20.9809784,29.5362572 L16.928612,29.5362572 L16.928612,16.9751457 Z M12.3538375,10.7311473 C13.651689,10.7311473 14.7056234,11.7452487 14.7056234,12.9947795 C14.7056234,14.2450415 13.651689,15.2591429 12.3538375,15.2591429 C11.050667,15.2591429 9.99977204,14.2450415 9.99977204,12.9947795 C9.99977204,11.7452487 11.050667,10.7311473 12.3538375,10.7311473 Z M10.3219553,29.5362572 L10.3219553,16.9751457 L14.3834401,16.9751457 L14.3834401,29.5362572 L10.3219553,29.5362572 Z" id="Combined-Shape" fill="#FFFFFF"></path>
    </g>
</svg>