<?xml version="1.0" encoding="UTF-8"?>
<svg width="40px" height="40px" viewBox="0 0 40 40" version="1.1" xmlns="http://www.w3.org/2000/svg" xmlns:xlink="http://www.w3.org/1999/xlink">
    <!-- Generator: Sketch 49.3 (51167) - http://www.bohemiancoding.com/sketch -->
    <title>Icon/Social/Twitter Copy</title>
    <desc>Created with Sketch.</desc>
    <defs></defs>
    <g id="Icon/Social/Twitter-Copy" stroke="none" stroke-width="1" fill="none" fill-rule="evenodd">
        <path d="M16.282513,28.7826342 C23.8295318,28.7826342 27.9591837,22.323963 27.9591837,16.7325046 C27.9591837,16.5508029 27.9591837,16.3691011 27.9511805,16.1873994 C28.7515006,15.5927391 29.4477791,14.8411546 30,13.9904601 C29.2637055,14.329086 28.4713886,14.5520836 27.6390556,14.6594529 C28.487395,14.1391251 29.1356543,13.3049489 29.4477791,12.3138485 C28.6554622,12.8011395 27.77511,13.1480247 26.8387355,13.3379856 C26.0864346,12.5120686 25.0220088,12 23.8455382,12 C21.5806323,12 19.739896,13.8996092 19.739896,16.2369544 C19.739896,16.5673212 19.779912,16.8894289 19.8439376,17.2032773 C16.4345738,17.0298348 13.4093637,15.3367048 11.3845538,12.776362 C11.032413,13.404059 10.8323329,14.130866 10.8323329,14.907228 C10.8323329,16.3773603 11.5606242,17.67405 12.6570628,18.4338937 C11.9847939,18.4091162 11.352541,18.2191553 10.8003201,17.9053068 C10.8003201,17.9218252 10.8003201,17.9383435 10.8003201,17.963121 C10.8003201,20.0113953 12.2168868,21.7293027 14.0896359,22.1174837 C13.7454982,22.2165937 13.3853541,22.2661488 13.0092037,22.2661488 C12.745098,22.2661488 12.4889956,22.2413713 12.2408964,22.1918162 C12.7611044,23.876687 14.2817127,25.0990442 16.0744298,25.1320809 C14.6658663,26.2718464 12.8971589,26.9490984 10.9763906,26.9490984 C10.6482593,26.9490984 10.3201281,26.93258 10,26.8912842 C11.8087235,28.0806047 13.9695878,28.7826342 16.282513,28.7826342" id="Shape" fill="#FFFFFF" fill-rule="nonzero"></path>
    </g>
</svg>