<?xml version="1.0" encoding="UTF-8"?>
<svg width="40px" height="40px" viewBox="0 0 40 40" version="1.1" xmlns="http://www.w3.org/2000/svg" xmlns:xlink="http://www.w3.org/1999/xlink">
    <!-- Generator: Sketch 50.2 (55047) - http://www.bohemiancoding.com/sketch -->
    <title>Style/Icon/Social/WeChat</title>
    <desc>Created with Sketch.</desc>
    <defs></defs>
    <g id="Style/Icon/Social/WeChat" stroke="none" stroke-width="1" fill="none" fill-rule="evenodd">
        <g id="Group" transform="translate(8.000000, 10.000000)" fill="#FFFFFF">
            <path d="M24,12.6650602 C24,9.3406099 20.7632583,6.65060241 16.7710843,6.65060241 C12.778704,6.65060241 9.54216867,9.3406099 9.54216867,12.6650602 C9.54216867,15.9775396 12.778704,18.6675471 16.7710843,18.6795181 C17.5958489,18.6675471 18.392344,18.5500265 19.1421687,18.3325301 C19.197712,18.3176609 19.1931664,18.3183264 19.3386483,18.2897849 C19.4841303,18.2612434 19.6106857,18.3325301 19.7204819,18.3903614 L21.2819277,19.3156627 C21.3538203,19.3541473 21.3963275,19.373494 21.4554217,19.373494 C21.5820388,19.373494 21.689545,19.2658525 21.686747,19.1421687 C21.689545,19.0738267 21.6677111,19.0195065 21.6507683,18.962247 C21.6338255,18.9049875 21.4400692,18.1994801 21.339759,17.7542169 C21.3255553,17.6911686 21.3177899,17.6548758 21.3177899,17.5355139 C21.3177899,17.4161521 21.3796135,17.2879664 21.513253,17.1759036 C23.0260474,16.0991765 24,14.4693242 24,12.6650602 Z M14.3141292,11.6240964 C13.831282,11.6240964 13.4168675,11.2099243 13.4168675,10.6707558 C13.4168675,10.1878641 13.831282,9.77349398 14.3141292,9.77349398 C14.8534516,9.77349398 15.2674699,10.1878641 15.2674699,10.6707558 C15.2674699,11.2099243 14.8534516,11.6240964 14.3141292,11.6240964 M19.1141292,11.6240964 C18.631282,11.6240964 18.2168675,11.2099243 18.2168675,10.6707558 C18.2168675,10.1878641 18.631282,9.77349398 19.1141292,9.77349398 C19.6534516,9.77349398 20.0674699,10.1878641 20.0674699,10.6707558 C20.0674699,11.2099243 19.6534516,11.6240964 19.1141292,11.6240964" id="Fill-4"></path>
            <path d="M0,7.22891566 C0,9.38304892 1.16794487,11.3384854 3.00722892,12.6650602 C3.14270596,12.7647747 3.21519894,12.878838 3.21514495,13.0703313 C3.21519894,13.1365168 3.20357887,13.2076695 3.18072289,13.3012048 C3.02696724,13.9304311 2.85806194,14.6505271 2.83373494,14.746988 C2.80940794,14.8434488 2.77105902,14.9077074 2.77590361,14.9783133 C2.77105902,15.1384247 2.90016611,15.2674699 3.06506024,15.2674699 C3.12270055,15.2674699 3.17405465,15.2440071 3.23855422,15.2096386 L5.14698795,14.1108434 C5.26781702,14.0377327 5.40344503,14.0000518 5.49499247,14.0000518 C5.58653991,14.0000518 5.73933547,14.0284733 5.84096386,14.053012 C6.72573725,14.2791522 7.68104726,14.4205463 8.6746988,14.4 C8.83022416,14.4205463 8.98882378,14.41643 9.1373494,14.4 C8.95830005,13.8467376 8.85538561,13.2544056 8.84819277,12.6650602 C8.85538561,9.01052603 12.3955187,6.0661545 16.7710843,6.07228916 C16.921073,6.0661545 17.0776102,6.07109403 17.2337349,6.07228916 C16.5807748,2.6342102 12.9958873,0 8.6746988,0 C3.88187503,0 0,3.2283945 0,7.22891566 Z M5.7253012,6.07228916 C5.08642241,6.07228916 4.5686747,5.55458763 4.5686747,4.91566265 C4.5686747,4.27694401 5.08642241,3.75903614 5.7253012,3.75903614 C6.36418,3.75903614 6.88192771,4.27694401 6.88192771,4.91566265 C6.88192771,5.55458763 6.36418,6.07228916 5.7253012,6.07228916 M11.5084337,6.07228916 C10.8695088,6.07228916 10.3518072,5.55458763 10.3518072,4.91566265 C10.3518072,4.27694401 10.8695088,3.75903614 11.5084337,3.75903614 C12.1471524,3.75903614 12.6650602,4.27694401 12.6650602,4.91566265 C12.6650602,5.55458763 12.1471524,6.07228916 11.5084337,6.07228916" id="Fill-6"></path>
        </g>
    </g>
</svg>