<?xml version="1.0" encoding="UTF-8"?>
<svg width="40px" height="40px" viewBox="0 0 40 40" version="1.1" xmlns="http://www.w3.org/2000/svg" xmlns:xlink="http://www.w3.org/1999/xlink">
    <!-- Generator: Sketch 49.3 (51167) - http://www.bohemiancoding.com/sketch -->
    <title>Icon/Social/YouTube Copy</title>
    <desc>Created with Sketch.</desc>
    <defs></defs>
    <g id="Icon/Social/YouTube-Copy" stroke="none" stroke-width="1" fill="none" fill-rule="evenodd">
        <path d="M29.5820455,15.1977121 C29.3520455,14.3326105 28.6743182,13.6513799 27.8138636,13.4201792 C26.2542045,13 20,13 20,13 C20,13 13.7457955,13 12.1861364,13.4201792 C11.3256818,13.6513799 10.6479545,14.3326105 10.4179545,15.1977121 C10,16.7656093 10,20.037037 10,20.037037 C10,20.037037 10,23.3083513 10.4179545,24.876362 C10.6479545,25.7414636 11.3256818,26.4226941 12.1861364,26.6540084 C13.7457955,27.0740741 20,27.0740741 20,27.0740741 C20,27.0740741 26.2542045,27.0740741 27.8138636,26.6540084 C28.6743182,26.4226941 29.3520455,25.7414636 29.5820455,24.876362 C30,23.3083513 30,20.037037 30,20.037037 C30,20.037037 30,16.7656093 29.5820455,15.1977121 Z M18.1481481,22.6296296 L18.1481481,16.7037037 L23.3333333,19.6667799 L18.1481481,22.6296296 Z" id="Fill-1" fill="#FFFFFF"></path>
    </g>
</svg>